Input #0, lavfi, from 'yuvtestsrc=duration=60:size=1920x1080:rate=30':
  Duration: N/A, start: 0.000000, bitrate: N/A
  Stream #0:0: Video: rawvideo (444P / 0x50343434), yuv444p, 1920x1080 [SAR 1:1 DAR 16:9], 30 tbr, 30 tbn, 30 tbc
Stream mapping:
  Stream #0:0 -> #0:0 (rawvideo (native) -> h264 (h264_nvenc))
Press [q] to stop, [?] for help
Output #0, mp4, to './test_results/temp_tests_gpu/test_test_50_13/output.mp4':
  Metadata:
    encoder         : Lavf58.76.100
  Stream #0:0: Video: h264 (High 4:4:4 Predictive) (avc1 / 0x31637661), yuv444p(tv, progressive), 1280x720 [SAR 1:1 DAR 16:9], q=2-31, 30 fps, 15360 tbn
    Metadata:
      encoder         : Lavc58.134.100 h264_nvenc
    Side data:
      cpb: bitrate max/min/avg: 3000000/0/0 buffer size: 4000000 vbv_delay: N/A
frame=    1 fps=0.0 q=0.0 size=       0kB time=00:00:00.00 bitrate=N/A speed=N/A    frame=    2 fps=1.1 q=0.0 size=       0kB time=00:00:00.00 bitrate=N/A speed=   0x    frame=  115 fps= 48 q=23.0 size=       0kB time=00:00:03.73 bitrate=   0.1kbits/s speed=1.57x    frame=  232 fps= 81 q=23.0 size=       0kB time=00:00:07.63 bitrate=   0.1kbits/s speed=2.65x    frame=  347 fps=103 q=23.0 size=       0kB time=00:00:11.46 bitrate=   0.0kbits/s speed=3.39x    frame=  451 fps=116 q=23.0 size=       0kB time=00:00:14.93 bitrate=   0.0kbits/s speed=3.84x    frame=  554 fps=126 q=23.0 size=       0kB time=00:00:18.36 bitrate=   0.0kbits/s speed=4.19x    frame=  662 fps=135 q=23.0 size=       0kB time=00:00:21.96 bitrate=   0.0kbits/s speed=4.49x    frame=  742 fps=138 q=23.0 size=       0kB time=00:00:24.63 bitrate=   0.0kbits/s speed=4.57x    frame=  817 fps=139 q=23.0 size=       0kB time=00:00:27.13 bitrate=   0.0kbits/s speed= 4.6x    frame=  908 fps=142 q=23.0 size=       0kB time=00:00:30.16 bitrate=   0.0kbits/s speed=4.72x    frame=  993 fps=144 q=23.0 size=       0kB time=00:00:33.00 bitrate=   0.0kbits/s speed=4.78x    frame= 1062 fps=143 q=23.0 size=       0kB time=00:00:35.30 bitrate=   0.0kbits/s speed=4.77x    frame= 1131 fps=143 q=23.0 size=       0kB time=00:00:37.60 bitrate=   0.0kbits/s speed=4.75x    frame= 1206 fps=143 q=23.0 size=       0kB time=00:00:40.10 bitrate=   0.0kbits/s speed=4.77x    frame= 1283 fps=144 q=23.0 size=       0kB time=00:00:42.66 bitrate=   0.0kbits/s speed=4.79x    frame= 1361 fps=145 q=23.0 size=       0kB time=00:00:45.26 bitrate=   0.0kbits/s speed=4.81x    frame= 1437 fps=145 q=23.0 size=       0kB time=00:00:47.80 bitrate=   0.0kbits/s speed=4.82x    frame= 1524 fps=146 q=23.0 size=       0kB time=00:00:50.70 bitrate=   0.0kbits/s speed=4.87x    frame= 1609 fps=147 q=23.0 size=     256kB time=00:00:53.53 bitrate=  39.2kbits/s speed= 4.9x    frame= 1691 fps=147 q=23.0 size=     256kB time=00:00:56.26 bitrate=  37.3kbits/s speed=4.91x    frame= 1775 fps=148 q=23.0 size=     256kB time=00:00:59.06 bitrate=  35.5kbits/s speed=4.94x    [mp4 @ 0x5d95c33857c0] Starting second pass: moving the moov atom to the beginning of the file
frame= 1800 fps=149 q=23.0 Lsize=     293kB time=00:00:59.96 bitrate=  40.1kbits/s speed=4.95x    
video:285kB audio:0kB subtitle:0kB other streams:0kB global headers:0kB muxing overhead: 2.801454%
